<?xml version="1.0" standalone="no"?>
<!DOCTYPE svg PUBLIC "-//W3C//DTD SVG 20010904//EN"
 "http://www.w3.org/TR/2001/REC-SVG-20010904/DTD/svg10.dtd">
<svg version="1.0" xmlns="http://www.w3.org/2000/svg"
 width="400.000000pt" height="400.000000pt" viewBox="0 0 400.000000 400.000000"
 preserveAspectRatio="xMidYMid meet">
<metadata>
Created by potrace 1.14, written by Peter Selinger 2001-2017
</metadata>
<g transform="translate(0.000000,400.000000) scale(0.100000,-0.100000)"
fill="#000000" stroke="none">
<path d="M1965 3429 c-27 -22 -101 -73 -163 -114 -129 -86 -119 -86 -255 -22
-65 30 -90 38 -99 29 -14 -14 4 -62 39 -102 l23 -28 -62 -21 c-35 -11 -111
-29 -169 -40 -113 -20 -149 -33 -149 -55 0 -18 17 -30 72 -51 27 -10 48 -18
48 -19 0 -1 -33 -35 -73 -76 -40 -41 -102 -113 -137 -160 -35 -47 -90 -110
-122 -141 -32 -30 -58 -63 -58 -72 0 -17 32 -29 82 -31 15 -1 28 -4 28 -8 0
-3 -9 -35 -20 -70 -11 -34 -42 -159 -70 -275 -28 -117 -54 -223 -58 -235 -18
-50 5 -73 57 -58 31 8 31 8 32 -28 0 -20 4 -88 8 -151 7 -98 6 -117 -7 -130
-27 -27 -53 -99 -59 -164 -18 -197 105 -392 260 -411 51 -7 55 -9 75 -49 38
-76 126 -181 197 -235 87 -65 225 -133 330 -163 91 -25 108 -40 100 -84 -12
-59 -16 -64 -65 -80 -53 -18 -172 -92 -232 -147 -37 -32 -178 -216 -178 -230
0 -5 93 -8 206 -8 l207 0 -5 83 c-3 45 -2 112 2 150 7 63 11 70 53 110 37 35
47 52 56 98 7 30 9 62 6 70 -4 12 19 14 144 14 l150 0 -6 -26 c-10 -51 16
-111 70 -162 l52 -48 3 -109 c3 -75 1 -110 -7 -110 -16 0 -24 45 -12 68 17 32
12 39 -9 13 -17 -19 -23 -21 -35 -11 -12 10 -15 10 -15 -2 0 -8 5 -19 11 -25
8 -8 6 -20 -7 -42 l-19 -31 -18 22 -19 23 6 -25 c3 -14 6 -33 6 -42 0 -11 8
-18 20 -18 11 0 20 7 20 15 0 9 7 26 16 40 15 23 16 23 35 4 10 -10 19 -28 19
-39 0 -19 7 -20 206 -20 l206 0 -17 27 c-120 189 -238 296 -392 358 -57 24
-58 24 -67 75 -5 30 -5 54 0 59 5 5 54 23 110 40 210 64 346 156 460 309 l39
53 5 -60 c6 -68 25 -97 59 -86 13 4 24 20 31 45 9 35 13 38 29 28 28 -17 49
-3 57 36 3 20 10 34 14 31 34 -21 66 56 50 117 -9 33 -7 40 30 95 53 79 73
162 68 273 -2 53 -10 98 -21 119 -21 41 -21 39 1 37 21 -1 21 6 3 297 -7 115
-11 211 -8 213 2 2 16 -5 31 -17 21 -16 30 -19 39 -10 26 26 -79 417 -143 533
-17 31 -12 37 23 27 40 -12 87 -2 87 17 0 46 -309 352 -426 422 l-64 39 59 27
c32 14 61 32 64 40 9 23 -8 36 -49 37 -21 1 -158 23 -303 50 -145 27 -304 54
-354 59 -50 6 -92 12 -94 13 -1 2 9 31 23 66 42 104 21 125 -61 60z m42 -836
c3 -7 11 -13 19 -13 17 0 19 46 4 84 -8 23 -7 26 12 26 28 0 121 -52 181 -102
61 -51 75 -43 59 34 -5 29 -9 54 -9 54 1 1 31 -5 67 -12 36 -8 116 -17 178
-21 110 -6 113 -7 138 -36 14 -16 34 -47 44 -68 48 -94 90 -334 90 -515 0
-114 5 -131 56 -185 33 -34 35 -40 44 -140 25 -274 -11 -532 -95 -700 -108
-211 -275 -330 -571 -405 -171 -43 -264 -45 -411 -9 -308 74 -484 197 -591
410 -43 85 -57 134 -82 275 -20 108 -22 149 -18 310 3 107 10 198 17 215 7 17
29 47 49 68 l37 38 7 172 c10 255 45 413 113 513 l35 51 113 7 c61 3 141 13
177 20 36 8 66 13 67 12 1 -1 -2 -19 -8 -39 -6 -21 -9 -54 -7 -75 l3 -37 17
32 c10 17 44 59 77 94 l60 62 61 -53 c34 -30 64 -60 67 -67z m570 91 c-3 -3
-12 -4 -19 -1 -8 3 -5 6 6 6 11 1 17 -2 13 -5z m-1563 -1159 c29 -22 56 -67
56 -93 0 -22 -1 -22 -31 -6 -32 16 -79 12 -79 -6 0 -6 13 -10 29 -10 38 0 77
-32 91 -75 6 -19 26 -93 44 -165 l32 -131 -30 7 c-80 18 -157 91 -192 184 -25
65 -26 245 -1 283 19 30 51 35 81 12z m2060 0 c50 -51 36 -254 -24 -353 -18
-29 -23 -32 -37 -21 -13 12 -18 10 -31 -9 -8 -12 -23 -22 -33 -22 -12 0 -22
-11 -28 -32 -7 -26 -9 -28 -10 -10 -1 12 -7 22 -16 22 -19 0 -19 1 6 107 39
169 61 203 127 203 30 0 33 2 22 15 -16 19 -37 19 -74 0 -16 -9 -31 -13 -34
-11 -11 12 12 62 43 93 36 36 65 42 89 18z m-187 -467 c-3 -8 -6 -5 -6 6 -1
11 2 17 5 13 3 -3 4 -12 1 -19z m-4 -130 c-3 -35 -10 -67 -15 -73 -7 -7 -8 9
-3 45 12 104 26 124 18 28z m74 0 c-3 -8 -6 -5 -6 6 -1 11 2 17 5 13 3 -3 4
-12 1 -19z"/>
<path d="M2549 2125 c-3 -23 -13 -34 -44 -49 -83 -38 -239 -130 -228 -133 6
-2 37 8 69 23 52 23 195 84 198 84 3 0 -6 -645 -8 -648 -3 -3 -111 18 -170 33
-26 7 -27 6 -17 -13 14 -26 68 -42 144 -42 50 0 58 -2 55 -17 -5 -24 -79 -20
-166 9 -74 23 -94 15 -62 -25 23 -29 85 -51 171 -62 l54 -7 -3 -89 c-2 -57 1
-89 8 -89 6 0 10 34 10 89 l0 88 59 6 c114 12 215 67 183 99 -8 8 -21 6 -44
-5 -31 -15 -139 -37 -180 -37 -17 0 -17 22 -11 358 4 241 10 359 17 364 6 4
26 11 44 14 27 5 39 1 76 -30 25 -20 47 -36 50 -36 16 0 2 30 -26 57 -57 53
-73 57 -150 37 -12 -4 -18 3 -20 23 l-4 28 -5 -30z"/>
<path d="M1337 2080 c-26 -23 -47 -48 -47 -56 0 -21 7 -18 53 21 22 19 50 35
63 35 22 0 144 -47 277 -106 43 -20 83 -34 89 -32 30 10 -276 162 -351 174
-32 5 -41 1 -84 -36z"/>
<path d="M1450 1700 c-20 -13 -4 -17 90 -25 41 -3 100 -15 130 -25 30 -10 57
-17 59 -14 11 11 -38 46 -82 59 -56 17 -174 20 -197 5z"/>
<path d="M1305 1634 c-102 -25 -134 -87 -34 -65 24 5 69 12 101 16 l56 6 -5
-61 c-7 -71 6 -103 47 -120 36 -15 76 -4 101 29 17 21 20 36 17 84 -3 43 -1
57 9 57 21 0 75 -30 105 -58 31 -29 43 -25 34 12 -8 32 -50 73 -96 94 -50 22
-256 26 -335 6z"/>
<path d="M1651 1316 c-23 -28 -111 -57 -173 -57 -48 -1 -73 6 -123 30 -74 37
-85 38 -59 10 50 -56 176 -84 270 -60 46 12 124 63 124 82 0 14 -26 11 -39 -5z"/>
<path d="M2010 1240 c0 -16 5 -30 10 -30 6 0 10 14 10 30 0 17 -4 30 -10 30
-5 0 -10 -13 -10 -30z"/>
<path d="M2005 828 c-64 -8 -145 -37 -145 -52 0 -4 10 -5 23 -2 69 20 132 27
211 24 63 -2 90 1 93 9 8 22 -93 33 -182 21z"/>
</g>
</svg>
